<?xml version="1.0" encoding="UTF-8"?>
<svg id="Layer_1" data-name="Layer 1" xmlns="http://www.w3.org/2000/svg" viewBox="0 0 1055.31 453.56">
  <defs>
    <style>
      .cls-1 {
        fill: #fff;
      }

      .cls-1, .cls-2 {
        font-family: GentiumBasic, 'Gentium Basic';
        font-size: 190.24px;
      }

      .cls-3 {
        fill: #3a7c44;
      }

      .cls-2 {
        fill: #fed600;
      }

      .cls-4 {
        fill: #04683b;
      }
    </style>
  </defs>
  <text class="cls-2" transform="translate(400.84 153.64)"><tspan x="0" y="0">Lucky</tspan></text>
  <path class="cls-4" d="M313.79,232.28h0c0-.09,0-.17,0-.25,0,.08,.02,.17,0,.25Z"/>
  <text class="cls-1" transform="translate(405.45 293.02)"><tspan x="0" y="0">Reynosa</tspan></text>
  <path class="cls-3" d="M265.8,290.34c-3.77-3.33,.86-9.14,4.94-6.2,68.96,49.59,174.54,116.59,256.57,131.39,.12,.02,.36,.03,.36,.03h.37s.24,.03,.26,.03c7.57,0,107.01,13.03,336.43-74.06,.54-.21,1.13-.29,1.71-.25,.51,.03,1.24,.04,2.14,.04,4.58-.03,5.58,6.44,1.19,7.77-70.25,21.36-315.51,98.51-324.67,100.71l-.16,.04-.53,.15c-8.87,2.09-56.94,36.43-278.62-159.64Z"/>
  <g>
    <path class="cls-3" d="M167.47,167.99s-25.69-21.88-46.61-42.8c-11.63-11.63-21.8-22.96-25.25-30.09-.73-1.52-1.38-3.01-1.97-4.5-.14-.36-.3-.73-.43-1.11-.55-1.43-1.05-2.86-1.49-4.27-.06-.23-.12-.46-.18-.68-.35-1.2-.65-2.39-.9-3.57-.09-.43-.19-.85-.28-1.29-.25-1.28-.46-2.55-.6-3.81-.06-.41-.08-.82-.11-1.22-.09-.94-.14-1.86-.19-2.78,0-.19-.03-.37-.03-.56,0,.03,0,.06,0,.09,0-.05,0-.09,0-.13,0-.27,0-.53,0-.8,0-.11-.02-.24-.02-.34,0,.08,.02,.17,.02,.25,0-.08,0-.16,0-.24,0-.95,.03-1.87,.1-2.78,.03-.46,.07-.91,.11-1.36,.1-1.08,.24-2.15,.44-3.21,.05-.32,.13-.63,.19-.96,.2-.98,.45-1.95,.72-2.89,.11-.41,.24-.81,.36-1.21,.29-.88,.59-1.74,.94-2.59,.1-.25,.19-.51,.3-.78,.46-1.05,.95-2.05,1.49-3.05,.18-.31,.36-.63,.55-.95,.45-.77,.93-1.52,1.42-2.26,.18-.26,.35-.51,.53-.77,.66-.93,1.36-1.83,2.12-2.69,.19-.23,.4-.45,.59-.66,.63-.68,1.27-1.36,1.96-2.01,.24-.22,.46-.44,.69-.66,.88-.79,1.79-1.55,2.73-2.27,.16-.13,.33-.23,.49-.35,.83-.61,1.7-1.19,2.58-1.76,.29-.17,.57-.35,.85-.51,1.06-.62,2.14-1.23,3.28-1.8,19.25-9.32,42.01-3.33,55.58,20.31,13.43-23.72,35.47-29.85,54.77-20.63,1.15,.54,2.23,1.15,3.3,1.76,.3,.18,.58,.35,.86,.52,.87,.55,1.74,1.11,2.56,1.71,.18,.13,.35,.25,.53,.38,.95,.71,1.86,1.47,2.73,2.24,.24,.22,.47,.46,.71,.68,.66,.62,1.31,1.27,1.92,1.94,.22,.24,.45,.48,.66,.73,.75,.85,1.45,1.74,2.12,2.66,.19,.26,.35,.52,.53,.78,.5,.72,.97,1.44,1.4,2.19,.21,.35,.41,.69,.6,1.04,.51,.95,1.01,1.92,1.46,2.93,.11,.28,.23,.57,.34,.84,.35,.84,.65,1.7,.94,2.56,.14,.43,.28,.87,.41,1.31,.23,.82,.44,1.65,.63,2.51,.07,.35,.17,.71,.24,1.06,.21,1.11,.37,2.24,.49,3.41,.05,.49,.08,.98,.12,1.47,.07,.83,.09,1.66,.11,2.51,0,.16,.02,.3,.02,.47,0,.03,0,.06,0,.08,0,.29,0,.58,0,.87,0,.03,0,.07,0,.09,0,.12-.02,.24-.02,.35-.03,.93-.08,1.87-.16,2.83-.03,.41-.07,.81-.11,1.22-.14,1.27-.34,2.55-.58,3.82-.08,.41-.17,.84-.25,1.25-.26,1.17-.55,2.35-.89,3.55-.06,.24-.12,.49-.19,.73-.41,1.41-.92,2.84-1.45,4.29-.14,.35-.28,.72-.42,1.08-.6,1.49-1.22,3-1.94,4.51-9.56,20.02-71.41,73.31-71.42,73.33Z"/>
    <path class="cls-3" d="M319.96,126.31c.68,.61,1.32,1.26,1.95,1.92,.22,.24,.46,.47,.68,.72,.78,.88,1.53,1.78,2.24,2.74,.13,.18,.25,.35,.38,.53,.6,.82,1.16,1.68,1.7,2.55,.19,.29,.35,.57,.52,.86,.62,1.08,1.23,2.16,1.77,3.31,9.22,19.3,3.09,41.35-20.64,54.77,23.64,13.57,29.64,36.34,20.31,55.58-.56,1.15-1.16,2.23-1.8,3.28-.17,.29-.34,.57-.51,.85-.56,.89-1.15,1.76-1.76,2.58-.12,.17-.23,.33-.35,.49-.71,.95-1.48,1.85-2.27,2.73-.22,.24-.43,.46-.66,.69-.65,.68-1.32,1.33-2.01,1.96-.21,.19-.43,.4-.65,.6-.87,.75-1.76,1.46-2.69,2.12-.25,.19-.51,.35-.78,.52-.73,.5-1.49,.97-2.26,1.42-.31,.19-.63,.38-.95,.55-1,.54-2,1.04-3.05,1.49-.25,.12-.52,.2-.78,.3-.84,.35-1.7,.66-2.58,.95-.4,.13-.8,.24-1.21,.36-.95,.27-1.92,.51-2.89,.72-.33,.06-.65,.13-.96,.19-1.05,.19-2.13,.34-3.21,.44-.45,.04-.89,.08-1.36,.11-.92,.06-1.85,.09-2.78,.1-.07,0-.13,0-.19,0-.04,0-.09,0-.13,0-.27,0-.53,0-.8,0t-.04,0c-.19,0-.37-.03-.56-.03-.91-.03-1.85-.09-2.78-.19-.41-.03-.81-.05-1.22-.11-1.26-.14-2.53-.35-3.81-.61-.43-.08-.85-.18-1.28-.27-1.18-.25-2.37-.55-3.57-.9-.23-.06-.46-.12-.68-.18-1.41-.43-2.84-.94-4.28-1.49-.35-.14-.73-.29-1.1-.44-1.49-.59-2.98-1.22-4.49-1.96-7.14-3.46-18.46-13.62-30.09-25.25-20.93-20.93-42.8-46.61-42.8-46.61,0-.02,53.31-61.86,73.32-71.43,1.51-.72,3.01-1.34,4.5-1.93,.36-.14,.73-.29,1.1-.42,1.43-.54,2.87-1.03,4.29-1.45,.24-.07,.47-.14,.72-.19,1.2-.34,2.38-.62,3.55-.87,.41-.09,.84-.18,1.25-.27,1.28-.24,2.56-.43,3.82-.58,.41-.04,.82-.06,1.23-.1,.95-.08,1.89-.14,2.81-.16,.1,0,.21,0,.3-.03-.02,0-.04,0-.08,0,.08,0,.16,0,.24,0,.3,0,.59,0,.88,0,.09,0,.19,0,.28,0-.07,0-.13,.02-.2,.02,.15,0,.3,.02,.46,0,.84,.02,1.69,.05,2.51,.11,.49,.03,.99,.08,1.47,.12,1.16,.13,2.3,.28,3.41,.49,.36,.08,.71,.17,1.07,.24,.84,.19,1.67,.39,2.5,.62,.44,.14,.88,.27,1.31,.41,.86,.29,1.71,.6,2.56,.94,.27,.12,.57,.23,.84,.34,1,.45,1.97,.95,2.93,1.46,.35,.19,.7,.4,1.04,.6,.74,.44,1.49,.91,2.19,1.4,.26,.18,.53,.35,.78,.53,.92,.67,1.81,1.38,2.66,2.12,.25,.22,.48,.45,.72,.67Z"/>
    <path class="cls-3" d="M165.54,214.43s25.69,21.86,46.62,42.79c11.63,11.63,21.78,22.96,25.24,30.1,.73,1.51,1.38,3,1.97,4.49,.14,.36,.29,.74,.43,1.11,.54,1.43,1.05,2.87,1.48,4.28,.06,.23,.12,.46,.18,.68,.35,1.21,.65,2.39,.9,3.57,.09,.43,.19,.86,.27,1.28,.25,1.28,.46,2.56,.61,3.81,.06,.41,.08,.82,.11,1.22,.09,.94,.15,1.87,.19,2.78,0,.19,.03,.37,.03,.56,0,.02,0,.03,0,.05,0,.26,0,.52,0,.79,0,.03,0,.05,0,.08,0,.08,0,.16,0,.24,0,.94-.04,1.86-.1,2.78-.03,.46-.07,.91-.11,1.36-.1,1.08-.24,2.15-.44,3.21-.06,.31-.13,.63-.19,.96-.21,.99-.45,1.95-.72,2.89-.12,.41-.24,.81-.36,1.21-.29,.88-.59,1.74-.95,2.58-.1,.25-.19,.53-.3,.78-.45,1.05-.95,2.07-1.49,3.05-.18,.33-.35,.64-.55,.95-.45,.77-.92,1.53-1.42,2.26-.18,.26-.34,.52-.52,.78-.66,.93-1.37,1.82-2.12,2.69l-.61,.66c-.62,.68-1.27,1.35-1.95,2-.23,.23-.46,.45-.69,.66-.88,.79-1.78,1.56-2.73,2.27-.16,.13-.32,.24-.49,.35-.84,.62-1.69,1.2-2.58,1.76-.28,.18-.57,.35-.85,.51-1.05,.63-2.14,1.25-3.28,1.8-19.25,9.32-42.01,3.33-55.58-20.31-13.42,23.73-35.47,29.86-54.77,20.65-1.14-.55-2.23-1.15-3.3-1.78-.29-.17-.57-.34-.86-.52-.87-.55-1.73-1.11-2.55-1.7-.18-.13-.36-.24-.53-.38-.95-.72-1.86-1.47-2.73-2.24-.24-.23-.47-.46-.72-.68-.66-.62-1.3-1.27-1.91-1.94-.23-.24-.46-.47-.67-.72-.75-.85-1.46-1.75-2.12-2.66-.19-.26-.36-.53-.54-.79-.49-.71-.96-1.43-1.39-2.19-.21-.35-.41-.69-.61-1.05-.51-.95-1.01-1.92-1.45-2.92-.12-.29-.22-.57-.35-.85-.33-.84-.65-1.7-.94-2.56-.13-.44-.28-.87-.4-1.31-.24-.82-.45-1.66-.63-2.51-.08-.35-.18-.7-.24-1.05-.21-1.12-.37-2.26-.49-3.41-.05-.49-.08-.98-.13-1.48-.05-.83-.09-1.66-.09-2.51,0-.16-.03-.31-.02-.47,0,.08-.02,.14-.02,.2,0-.08,0-.18,0-.28,0-.29,0-.57,0-.87,0-.05,0-.1,0-.14,0,0,0,.03,.02,.05,0-.11,0-.24,.02-.35,.03-.94,.08-1.86,.15-2.82,.04-.41,.06-.82,.12-1.23,.13-1.27,.34-2.53,.58-3.82,.08-.41,.17-.83,.25-1.25,.24-1.17,.54-2.36,.87-3.55,.08-.24,.13-.48,.2-.73,.41-1.41,.91-2.84,1.44-4.28,.14-.36,.29-.73,.42-1.1,.59-1.49,1.22-2.98,1.95-4.5,9.56-20.02,71.4-73.32,71.41-73.32Z"/>
    <path class="cls-3" d="M11.4,259.74c-.22-.24-.46-.47-.68-.71-.78-.88-1.54-1.79-2.24-2.73-.14-.17-.25-.35-.38-.53-.6-.82-1.16-1.69-1.71-2.56-.18-.28-.35-.57-.52-.86-.62-1.06-1.22-2.15-1.77-3.29-9.21-19.31-3.08-41.36,20.64-54.78C1.09,180.71-4.9,157.94,4.42,138.69c.56-1.13,1.17-2.22,1.8-3.28,.17-.29,.35-.57,.51-.85,.57-.89,1.14-1.75,1.76-2.58,.13-.16,.23-.33,.35-.49,.72-.94,1.48-1.85,2.27-2.73,.21-.23,.44-.46,.66-.69,.65-.68,1.32-1.32,2-1.95,.22-.2,.44-.41,.67-.6,.86-.76,1.76-1.46,2.69-2.12,.25-.19,.51-.35,.77-.53,.74-.49,1.49-.97,2.26-1.42,.32-.19,.64-.37,.95-.55,1-.52,2.01-1.03,3.05-1.49,.25-.1,.51-.19,.78-.3,.85-.35,1.71-.65,2.59-.94,.4-.13,.79-.25,1.21-.36,.95-.27,1.91-.51,2.89-.72,.33-.06,.64-.14,.96-.19,1.05-.19,2.13-.34,3.21-.44,.45-.04,.9-.08,1.36-.11,.91-.07,1.84-.1,2.78-.1,.08,0,.16,0,.24,0,.03,0,.06,0,.08,0,.27,0,.53,0,.79,0,.02,0,.03,0,.05,0,.19,0,.37,.03,.55,.04,.93,.03,1.86,.08,2.79,.18,.41,.03,.81,.05,1.22,.11,1.26,.14,2.52,.35,3.81,.6,.43,.09,.86,.19,1.29,.28,1.18,.25,2.36,.56,3.57,.9,.23,.06,.46,.12,.68,.18,1.41,.43,2.84,.94,4.28,1.48,.36,.14,.74,.29,1.11,.43,1.48,.6,2.98,1.24,4.49,1.97,7.13,3.45,18.46,13.6,30.09,25.23,20.93,20.93,42.8,46.63,42.8,46.63,0,0-53.31,61.86-73.32,71.41-1.52,.73-3.02,1.35-4.51,1.94-.36,.14-.73,.29-1.09,.43-1.44,.53-2.87,1.03-4.28,1.44-.24,.08-.49,.14-.73,.19-1.19,.33-2.38,.62-3.54,.88-.41,.09-.84,.18-1.25,.25-1.28,.25-2.56,.45-3.82,.58-.42,.05-.82,.08-1.23,.12-.95,.08-1.89,.12-2.82,.15-.12,0-.24,.03-.35,.02,.04,0,.08,.02,.13,.02-.08,0-.16,0-.23,0-.3,0-.58,0-.87,0-.02,0-.05,0-.08,0-.17,0-.32-.02-.47-.02-.85,0-1.68-.04-2.51-.1-.49-.03-.98-.07-1.47-.12-1.16-.13-2.3-.29-3.41-.49-.35-.07-.71-.17-1.05-.24-.85-.19-1.7-.4-2.51-.63-.45-.13-.89-.26-1.32-.41-.86-.29-1.71-.6-2.56-.94-.27-.12-.57-.23-.84-.34-1-.45-1.97-.95-2.93-1.46-.35-.19-.69-.39-1.04-.6-.75-.43-1.48-.9-2.19-1.4-.26-.18-.52-.34-.78-.53-.92-.67-1.81-1.37-2.66-2.12-.24-.21-.48-.45-.72-.67-.68-.61-1.32-1.26-1.95-1.92Z"/>
    <circle class="cls-3" cx="165.83" cy="191.21" r="12.26"/>
  </g>
</svg>